<?xml version="1.0" encoding="iso-8859-1"?>
<!-- Generator: Adobe Illustrator 19.0.0, SVG Export Plug-In . SVG Version: 6.00 Build 0)  -->
<svg version="1.1" id="Layer_1" xmlns="http://www.w3.org/2000/svg" xmlns:xlink="http://www.w3.org/1999/xlink" x="0px" y="0px"
	 viewBox="0 0 512 512" style="enable-background:new 0 0 512 512;" xml:space="preserve">
<g>
	<g>
		<g>
			<path d="M332.86,386.326c-23.188,13.707-49.766,20.951-76.86,20.951c-83.414,0-151.276-67.863-151.276-151.277
				S172.587,104.724,256,104.724c83.414,0,151.277,67.863,151.277,151.276c0,44.026-19.133,85.786-52.494,114.574
				c-3.598,3.104-3.998,8.538-0.893,12.136c3.105,3.599,8.537,4,12.136,0.893c37.152-32.06,58.461-78.569,58.461-127.603
				c0-92.903-75.583-168.486-168.487-168.486S87.514,163.097,87.514,256c0,92.904,75.582,168.487,168.486,168.487
				c30.174,0,59.778-8.073,85.617-23.347c4.091-2.418,5.447-7.695,3.029-11.786C342.227,385.264,336.951,383.908,332.86,386.326z"/>
			<path d="M256.001,143.855c28.05,0,54.898,10.408,75.596,29.308c3.51,3.203,8.952,2.958,12.158-0.553
				c3.203-3.51,2.957-8.952-0.553-12.157c-23.878-21.802-54.846-33.809-87.201-33.809c-71.328,0-129.357,58.029-129.357,129.356
				c0,71.329,58.029,129.359,129.357,129.359s129.359-58.029,129.357-129.357c0-25.921-7.641-50.931-22.098-72.33
				c-2.66-3.939-8.009-4.973-11.947-2.313s-4.974,8.009-2.313,11.947c12.527,18.542,19.148,40.221,19.148,62.695
				c0,61.839-50.31,112.148-112.148,112.148c-61.839,0-112.147-50.31-112.147-112.148S194.163,143.855,256.001,143.855z"/>
			<path d="M256,66.857c4.752,0,8.605-3.852,8.605-8.605V8.605C264.605,3.853,260.752,0,256,0c-4.753,0-8.605,3.853-8.605,8.605
				v49.647C247.395,63.004,251.247,66.857,256,66.857z"/>
			<path d="M256,445.144c-4.753,0-8.605,3.853-8.605,8.605v49.646c0,4.752,3.852,8.605,8.605,8.605c4.752,0,8.605-3.853,8.605-8.605
				v-49.646C264.605,448.997,260.752,445.144,256,445.144z"/>
			<path d="M149.674,89.047c1.594,2.761,4.486,4.305,7.461,4.305c1.461,0,2.94-0.373,4.294-1.155
				c4.115-2.376,5.526-7.639,3.149-11.755l-24.824-42.996c-2.376-4.116-7.638-5.524-11.755-3.149
				c-4.115,2.376-5.526,7.639-3.149,11.755L149.674,89.047z"/>
			<path d="M362.328,422.952c-2.377-4.115-7.639-5.526-11.756-3.151c-4.115,2.377-5.527,7.64-3.151,11.756l24.823,42.997
				c1.594,2.76,4.485,4.304,7.461,4.304c1.459,0,2.939-0.372,4.295-1.153c4.116-2.377,5.527-7.64,3.15-11.756L362.328,422.952z"/>
			<path d="M37.448,139.756l42.994,24.822c1.355,0.782,2.835,1.154,4.295,1.154c2.974,0,5.865-1.544,7.46-4.304
				c2.376-4.115,0.966-9.378-3.149-11.754l-42.994-24.822c-4.114-2.377-9.378-0.966-11.754,3.149
				C31.923,132.116,33.333,137.38,37.448,139.756z"/>
			<path d="M474.554,372.245l-42.997-24.823c-4.114-2.373-9.377-0.965-11.756,3.151c-2.376,4.115-0.965,9.378,3.151,11.756
				l42.997,24.823c1.355,0.781,2.834,1.153,4.294,1.153c2.973,0,5.866-1.544,7.462-4.304
				C480.081,379.885,478.669,374.622,474.554,372.245z"/>
			<path d="M66.857,256c0-4.752-3.853-8.605-8.605-8.605H8.605C3.853,247.395,0,251.248,0,256s3.853,8.605,8.605,8.605h49.647
				C63.004,264.605,66.857,260.752,66.857,256z"/>
			<path d="M503.395,247.395h-49.646c-4.752,0-8.605,3.853-8.605,8.605s3.853,8.605,8.605,8.605h49.646
				c4.752,0,8.605-3.853,8.605-8.605S508.147,247.395,503.395,247.395z"/>
			<path d="M80.442,347.422l-42.996,24.823c-4.115,2.376-5.526,7.639-3.149,11.754c1.594,2.76,4.486,4.304,7.461,4.304
				c1.46,0,2.94-0.372,4.294-1.154l42.996-24.823c4.115-2.376,5.526-7.639,3.149-11.754
				C89.819,346.456,84.559,345.047,80.442,347.422z"/>
			<path d="M427.263,165.732c1.459,0,2.939-0.372,4.294-1.155l42.997-24.822c4.116-2.376,5.527-7.638,3.151-11.755
				c-2.377-4.114-7.637-5.527-11.756-3.149l-42.997,24.822c-4.115,2.376-5.527,7.638-3.151,11.754
				C421.396,164.189,424.288,165.732,427.263,165.732z"/>
			<path d="M161.428,419.801c-4.115-2.374-9.378-0.966-11.754,3.151l-24.823,42.997c-2.376,4.115-0.966,9.379,3.149,11.756
				c1.356,0.781,2.835,1.153,4.295,1.153c2.973,0,5.867-1.544,7.459-4.304l24.823-42.997
				C166.954,427.44,165.544,422.178,161.428,419.801z"/>
			<path d="M350.57,92.198c1.355,0.782,2.834,1.154,4.294,1.154c2.974,0,5.866-1.544,7.461-4.304l24.824-42.996
				c2.377-4.115,0.966-9.378-3.149-11.755c-4.114-2.377-9.378-0.966-11.754,3.149l-24.825,42.996
				C345.044,84.559,346.455,89.822,350.57,92.198z"/>
		</g>
	</g>
</g>
<g>
</g>
<g>
</g>
<g>
</g>
<g>
</g>
<g>
</g>
<g>
</g>
<g>
</g>
<g>
</g>
<g>
</g>
<g>
</g>
<g>
</g>
<g>
</g>
<g>
</g>
<g>
</g>
<g>
</g>
</svg>
